<svg width="18" height="12" viewBox="0 0 18 12" fill="none" xmlns="http://www.w3.org/2000/svg">
<path d="M14.8333 1.83329C14.8333 0.916626 14.0833 0.166626 13.1666 0.166626H10.6666V1.83329H13.1666V4.04163L10.2666 7.66663H7.33329V3.49996H3.99996C2.15829 3.49996 0.666626 4.99163 0.666626 6.83329V9.33329H2.33329C2.33329 10.7166 3.44996 11.8333 4.83329 11.8333C6.21663 11.8333 7.33329 10.7166 7.33329 9.33329H11.0666L14.8333 4.62496V1.83329ZM4.83329 10.1666C4.37496 10.1666 3.99996 9.79163 3.99996 9.33329H5.66663C5.66663 9.79163 5.29163 10.1666 4.83329 10.1666Z" fill="#323232"/>
<path d="M7.33329 1H3.16663V2.66667H7.33329V1Z" fill="#323232"/>
<path d="M14.8333 6.83325C13.4499 6.83325 12.3333 7.94992 12.3333 9.33325C12.3333 10.7166 13.4499 11.8333 14.8333 11.8333C16.2166 11.8333 17.3333 10.7166 17.3333 9.33325C17.3333 7.94992 16.2166 6.83325 14.8333 6.83325ZM14.8333 10.1666C14.3749 10.1666 13.9999 9.79159 13.9999 9.33325C13.9999 8.87492 14.3749 8.49992 14.8333 8.49992C15.2916 8.49992 15.6666 8.87492 15.6666 9.33325C15.6666 9.79159 15.2916 10.1666 14.8333 10.1666Z" fill="#323232"/>
</svg>
