<svg width="20" height="20" viewBox="0 0 20 20" fill="none" xmlns="http://www.w3.org/2000/svg">
<g clip-path="url(#clip0_2625_16945)">
<path d="M15.0507 19.158H16.434C17.134 19.158 17.709 18.6247 17.7923 17.9413L19.1673 4.20801H15.0007V0.833008H13.359V4.20801H9.21732L9.46732 6.15801C10.8923 6.54967 12.2257 7.25801 13.0257 8.04134C14.2257 9.22467 15.0507 10.4497 15.0507 12.4497V19.158ZM0.833984 18.3247V17.4997H13.359V18.3247C13.359 18.783 12.984 19.158 12.5173 19.158H1.67565C1.20898 19.158 0.833984 18.783 0.833984 18.3247ZM13.359 12.4913C13.359 5.82467 0.833984 5.82467 0.833984 12.4913H13.359ZM0.850651 14.1663H13.3507V15.833H0.850651V14.1663Z" fill="#323232"/>
</g>
<defs>
<clipPath id="clip0_2625_16945">
<rect width="20" height="20" fill="white"/>
</clipPath>
</defs>
</svg>
