<svg width="20" height="20" viewBox="0 0 20 20" fill="none" xmlns="http://www.w3.org/2000/svg">
<g clip-path="url(#clip0_2625_16948)">
<path d="M17.141 12.3837L18.3327 11.192L17.141 10.0003L14.166 12.9753L7.02435 5.83366L9.99935 2.85866L8.80768 1.66699L7.61602 2.85866L6.42435 1.66699L4.64102 3.45033L3.44935 2.25866L2.25768 3.45033L3.44935 4.64199L1.66602 6.42533L2.85768 7.61699L1.66602 8.80866L2.85768 10.0003L5.83268 7.02533L12.9743 14.167L9.99935 17.142L11.191 18.3337L12.3827 17.142L13.5743 18.3337L15.3577 16.5503L16.5493 17.742L17.741 16.5503L16.5493 15.3587L18.3327 13.5753L17.141 12.3837Z" fill="#323232"/>
</g>
<defs>
<clipPath id="clip0_2625_16948">
<rect width="20" height="20" fill="white"/>
</clipPath>
</defs>
</svg>
