<svg width="20" height="20" viewBox="0 0 20 20" fill="none" xmlns="http://www.w3.org/2000/svg">
<g clip-path="url(#clip0_2625_16951)">
<path d="M18.3327 9.16699H14.8577L17.5577 6.46699L16.3827 5.28366L12.4993 9.16699H10.8327V7.50033L14.716 3.61699L13.5327 2.44199L10.8327 5.14199V1.66699H9.16602V5.14199L6.46602 2.44199L5.28268 3.61699L9.16602 7.50033V9.16699H7.49935L3.61602 5.28366L2.44102 6.46699L5.14102 9.16699H1.66602V10.8337H5.14102L2.44102 13.5337L3.61602 14.717L7.49935 10.8337H9.16602V12.5003L5.28268 16.3837L6.46602 17.5587L9.16602 14.8587V18.3337H10.8327V14.8587L13.5327 17.5587L14.716 16.3837L10.8327 12.5003V10.8337H12.4993L16.3827 14.717L17.5577 13.5337L14.8577 10.8337H18.3327V9.16699Z" fill="#323232"/>
</g>
<defs>
<clipPath id="clip0_2625_16951">
<rect width="20" height="20" fill="white"/>
</clipPath>
</defs>
</svg>
